# xmcd
#
# Track frame offsets:
#	150
#	15728
#	32748
#	49744
#	64789
#	82097
#	97216
#	111387
#	127263
#	139024
#	155136
#	170486
#	185369
#	203635
#	216070
#	216746
#
# Disc length: 2897
#
# Revision: 1
# Processed by: cddbd v1.5.1PL0 Copyright (c) Steve Scherf et al.
# Submitted via: VisiTrax 2.9.5.180 - For more info visit www.synapsa.com
# Normalized: r0:DSETVAR1
#
DISCID=fb0b4f10
DTITLE=Various Artist - CDX 195 August 1998
DYEAR=1998
DGENRE=
TTITLE0=Hal Ketchum - A girl like you
TTITLE1=Pam Tillis - Every time
TTITLE2=Restless Heart - For lack of better words
TTITLE3=Toby Keith - Getcha some
TTITLE4=Travis Tritt - If I lost you
TTITLE5=Confederate rairoad - Keep on rockin
TTITLE6=Suzy Bogguss - Nobody love, nobody gets hurt
TTITLE7=Various Artist - Same old train
TTITLE8=Jon Randall - She don't believe in fairy tales
TTITLE9=Dwight oakam - These arms
TTITLE10=Wynonna - Woman to woman
TTITLE11=Martina McBride - Wrong again
TTITLE12=Garth Brooks - You move me
TTITLE13=Scooter Lee - Dizzy
TTITLE14=Martina McBride - Liners
TTITLE15=Martina McBride - Liners
EXTD=
EXTT0=
EXTT1=
EXTT2=
EXTT3=
EXTT4=
EXTT5=
EXTT6=
EXTT7=
EXTT8=
EXTT9=
EXTT10=
EXTT11=
EXTT12=
EXTT13=
EXTT14=
EXTT15=
PLAYORDER=
